<?xml version="1.0" encoding="UTF-8" standalone="no"?>
<!DOCTYPE svg PUBLIC "-//W3C//DTD SVG 1.1//EN" "http://www.w3.org/Graphics/SVG/1.1/DTD/svg11.dtd">
<svg width="100%" height="100%" viewBox="0 0 2000 2000" version="1.1" xmlns="http://www.w3.org/2000/svg" xmlns:xlink="http://www.w3.org/1999/xlink" xml:space="preserve" xmlns:serif="http://www.serif.com/" style="fill-rule:evenodd;clip-rule:evenodd;stroke-linejoin:round;stroke-miterlimit:2;">
    <g transform="matrix(1.00321,0,0,1.00321,-3.2068,-6.41361)">
        <path d="M1533.1,514.756L1533.1,726.035C1533.1,889.79 1394.27,1027.61 1235.96,1027.61L760.894,1027.61C630.756,1027.61 523.005,1138.98 523.005,1269.22L523.005,1722.12C523.005,1851.01 635.102,1926.83 760.894,1963.73C911.45,2008.01 1055.9,2016.01 1235.96,1963.73C1355.7,1929.07 1473.85,1859.28 1473.85,1722.12L1473.85,1540.82L998.782,1540.82L998.782,1480.39L1711.74,1480.39C1849.97,1480.39 1901.55,1383.98 1949.63,1239.31C1999.28,1090.32 1997.17,946.964 1949.63,755.909C1915.46,618.302 1850.21,514.827 1711.74,514.827L1533.28,514.827L1533.1,514.756ZM1265.94,1661.8C1315.2,1661.8 1355.19,1702.41 1355.19,1752.44C1355.19,1802.47 1315.2,1843.08 1265.94,1843.08C1216.68,1843.08 1176.69,1802.47 1176.69,1752.44C1176.69,1702.41 1216.68,1661.8 1265.94,1661.8Z" style="fill:url(#_Linear1);"/>
        <path d="M988.139,6.48C906.82,6.858 829.174,13.792 760.894,25.887C559.549,61.455 523.005,135.873 523.005,273.178L523.005,454.477L998.605,454.477L998.605,514.898L344.545,514.898C206.317,514.898 85.191,597.99 47.406,755.979C3.731,937.101 1.797,1050.28 47.406,1239.38C81.218,1380.2 161.968,1480.47 300.196,1480.47L463.737,1480.47L463.737,1263.16C463.737,1106.16 599.57,967.613 760.876,967.613L1235.94,967.613C1368.19,967.613 1473.83,858.727 1473.83,725.999L1473.83,273.107C1473.83,144.21 1365.09,47.458 1235.94,25.816C1154.24,12.215 1069.46,6.036 988.121,6.409L988.139,6.48ZM730.914,152.282C780.171,152.282 820.162,192.897 820.162,242.923C820.162,292.949 780.171,333.563 730.914,333.563C681.657,333.563 641.666,292.949 641.666,242.923C641.666,192.897 681.657,152.282 730.914,152.282Z" style="fill:url(#_Linear2);"/>
    </g>
    <defs>
        <linearGradient id="_Linear1" x1="0" y1="0" x2="1" y2="0" gradientUnits="userSpaceOnUse" gradientTransform="matrix(-400.51,-495.063,495.063,-400.51,1265.94,1752.44)"><stop offset="0" style="stop-color:rgb(255,212,59);stop-opacity:1"/><stop offset="1" style="stop-color:rgb(255,232,115);stop-opacity:1"/></linearGradient>
        <linearGradient id="_Linear2" x1="0" y1="0" x2="1" y2="0" gradientUnits="userSpaceOnUse" gradientTransform="matrix(1110.04,914.066,-914.066,1110.04,5.59062,6.3958)"><stop offset="0" style="stop-color:rgb(90,159,212);stop-opacity:1"/><stop offset="1" style="stop-color:rgb(48,105,152);stop-opacity:1"/></linearGradient>
    </defs>
</svg>
